<svg id="Livello_1" data-name="Livello 1" xmlns="http://www.w3.org/2000/svg" viewBox="0 0 715.77 715.78"><defs><style>.cls-1{fill:#fcfcfc;}</style></defs><title>logo-dark</title><path d="M104.66,104.79Q209.45,0,357.94,0,509.08,0,612.52,104.79q103.18,104.61,103.25,256,0,148.48-103.25,251.74T357.94,715.78q-148.49,0-253.28-103.25Q.05,509.33,0,360.79,0,209.47,104.66,104.79Z"/><path class="cls-1" d="M246.71,225.65v262H230.78v-262Z"/><path class="cls-1" d="M439.66,309.39q21.6,16.46,29.39,43.36V295.4H485V487.65H469.05V430.29q-7.8,26.91-29.39,43.37t-53.11,16.46q-26.91,0-47.62-11.86t-32.39-34.34q-11.69-22.47-11.68-52.57T306.54,339q11.68-22.31,32.39-34.17t47.62-11.86Q418.07,292.92,439.66,309.39Zm-107.1,20.35q-21.42,22.67-21.42,61.61,0,39.3,21.24,61.95T390.1,476q22.65,0,40.71-10.44A72.06,72.06,0,0,0,459,435.78q10.08-19.29,10.09-44.43T459,347.09a72.38,72.38,0,0,0-28.15-29.56q-18.06-10.44-40.71-10.45Q354,307.08,332.56,329.74Z"/></svg>